<svg width="413" height="132" viewBox="0 0 413 132" fill="none" xmlns="http://www.w3.org/2000/svg">
<path d="M65.3059 65.0954C67.7892 63.9844 60.9256 50.7602 91.5185 40.5449C122.111 30.3297 142.978 36.4249 145.91 35.9774C148.807 35.5453 162.431 8.81905 219.719 1.87516C277.007 -5.06873 336.745 7.95492 350.817 29.6816C363.681 49.5411 353.714 62.9197 355.197 63.7838C356.645 64.6479 384.341 64.2159 400.345 75.7273C416.348 87.2387 410.554 94.4141 410.554 94.4141L308.6 108.533H145.461C145.461 108.533 1.74029 91.5902 0.291697 88.5504C-1.1569 85.5105 2.11968 75.6347 25.5386 69.6475C45.8879 64.4473 60.9256 67.0552 65.3059 65.0954Z" fill="#FBFBFB"/>
<path d="M106.844 113.605C106.844 113.605 52.3619 118.7 15.5227 105.947C-6.64289 98.2588 1.43617 85.7998 1.43617 85.7998C1.43617 85.7998 17.3181 92.9788 49.3926 94.924C81.4672 96.8847 117.443 96.2209 117.443 96.2209C117.443 96.2209 126.42 103.076 160.221 106.225C202.584 110.162 224.922 100.467 224.922 100.467C224.922 100.467 236.523 106.673 277.367 107.105C318.211 107.537 341.102 94.7851 344.934 94.4917C346.868 94.3528 358.123 98.9226 380.427 97.317C401.66 95.7886 412.847 91.6665 412.847 91.6665C412.847 91.6665 415.92 101.887 394.548 108.186C377.872 113.095 348.87 113.62 348.87 113.62C348.87 113.62 344.451 121.201 324.53 126.712C306.024 131.853 274.122 133.567 250.506 130.417C220.848 126.465 213.494 120.429 213.494 120.429C213.494 120.429 191.398 126.218 156.872 124.257C124.245 122.436 106.844 113.605 106.844 113.605Z" fill="#FBFBFB"/>
</svg>
