<svg width="20" height="20" viewBox="0 0 20 20" fill="none" xmlns="http://www.w3.org/2000/svg">
<path d="M9.58518 0.289743C9.61919 0.203952 9.67666 0.13065 9.75035 0.0790841C9.82403 0.0275186 9.91062 0 9.9992 0C10.0878 0 10.1744 0.0275186 10.248 0.0790841C10.3217 0.13065 10.3792 0.203952 10.4132 0.289743L12.8585 6.45774C12.8901 6.53767 12.9421 6.60689 13.0089 6.65779C13.0756 6.70869 13.1544 6.73929 13.2366 6.74623L19.5859 7.27931C19.6745 7.28644 19.7592 7.32106 19.829 7.37876C19.8989 7.43646 19.9508 7.51464 19.9782 7.60337C20.0056 7.6921 20.0072 7.78736 19.9829 7.87706C19.9585 7.96677 19.9093 8.04685 19.8415 8.10714L15.0063 12.4533C14.9437 12.5094 14.897 12.5826 14.8714 12.6647C14.8459 12.7469 14.8424 12.8348 14.8613 12.9189L16.341 19.4178C16.3622 19.5086 16.3571 19.604 16.3264 19.6917C16.2957 19.7795 16.2407 19.8557 16.1685 19.9105C16.0964 19.9654 16.0102 19.9964 15.9211 19.9997C15.8321 20.003 15.7441 19.9783 15.6684 19.9289L10.2339 16.4451C10.1636 16.4002 10.0829 16.3765 10.0007 16.3765C9.91844 16.3765 9.83778 16.4002 9.76752 16.4451L4.33147 19.9289C4.25585 19.9773 4.16824 20.0011 4.07972 19.9973C3.9912 19.9936 3.90573 19.9624 3.83409 19.9077C3.76245 19.853 3.70787 19.7773 3.67722 19.6901C3.64656 19.6029 3.64122 19.5081 3.66187 19.4178L5.14008 12.9189C5.15902 12.8348 5.15551 12.7469 5.12994 12.6647C5.10436 12.5826 5.05771 12.5094 4.9951 12.4533L0.156909 8.10714C0.0895899 8.04673 0.0408394 7.96676 0.0168097 7.87731C-0.00721994 7.78786 -0.00545196 7.69295 0.0218907 7.60456C0.0492334 7.51616 0.100925 7.43825 0.170443 7.38064C0.23996 7.32303 0.324187 7.28832 0.412494 7.28088L6.76178 6.7478C6.84417 6.74072 6.9231 6.70988 6.98983 6.65869C7.05657 6.60751 7.10851 6.53796 7.13993 6.45774L9.58518 0.289743Z" fill="#CED0E8"/>
</svg>
