<svg width="1371" height="542" viewBox="0 0 1371 542" fill="none" xmlns="http://www.w3.org/2000/svg">
<path d="M404.981 293.362C405.024 293.255 405.096 293.163 405.188 293.099C405.28 293.034 405.388 293 405.499 293C405.61 293 405.718 293.034 405.81 293.099C405.902 293.163 405.974 293.255 406.017 293.362L409.073 301.072C409.113 301.172 409.178 301.259 409.261 301.322C409.344 301.386 409.443 301.424 409.546 301.433L417.482 302.099C417.593 302.108 417.699 302.151 417.786 302.223C417.874 302.296 417.938 302.393 417.973 302.504C418.007 302.615 418.009 302.734 417.979 302.846C417.948 302.958 417.887 303.059 417.802 303.134L411.758 308.567C411.68 308.637 411.621 308.728 411.589 308.831C411.557 308.934 411.553 309.044 411.577 309.149L413.426 317.272C413.453 317.386 413.446 317.505 413.408 317.615C413.37 317.724 413.301 317.82 413.211 317.888C413.12 317.957 413.013 317.996 412.901 318C412.79 318.004 412.68 317.973 412.586 317.911L405.792 313.556C405.705 313.5 405.604 313.471 405.501 313.471C405.398 313.471 405.297 313.5 405.209 313.556L398.414 317.911C398.32 317.972 398.21 318.001 398.1 317.997C397.989 317.992 397.882 317.953 397.793 317.885C397.703 317.816 397.635 317.722 397.597 317.613C397.558 317.504 397.552 317.385 397.577 317.272L399.425 309.149C399.449 309.044 399.444 308.934 399.412 308.831C399.38 308.728 399.322 308.637 399.244 308.567L393.196 303.134C393.112 303.058 393.051 302.958 393.021 302.847C392.991 302.735 392.993 302.616 393.027 302.506C393.062 302.395 393.126 302.298 393.213 302.226C393.3 302.154 393.405 302.11 393.516 302.101L401.452 301.435C401.555 301.426 401.654 301.387 401.737 301.323C401.821 301.259 401.886 301.172 401.925 301.072L404.981 293.362Z" fill="#CED0E8"/>
<path d="M834.981 10.3622C835.024 10.2549 835.096 10.1633 835.188 10.0989C835.28 10.0344 835.388 10 835.499 10C835.61 10 835.718 10.0344 835.81 10.0989C835.902 10.1633 835.974 10.2549 836.017 10.3622L839.073 18.0722C839.113 18.1721 839.178 18.2586 839.261 18.3222C839.344 18.3859 839.443 18.4241 839.546 18.4328L847.482 19.0991C847.593 19.1081 847.699 19.1513 847.786 19.2235C847.874 19.2956 847.938 19.3933 847.973 19.5042C848.007 19.6151 848.009 19.7342 847.979 19.8463C847.948 19.9585 847.887 20.0586 847.802 20.1339L841.758 25.5666C841.68 25.6368 841.621 25.7283 841.589 25.8309C841.557 25.9336 841.553 26.0435 841.577 26.1487L843.426 34.2722C843.453 34.3857 843.446 34.505 843.408 34.6147C843.37 34.7244 843.301 34.8196 843.211 34.8882C843.12 34.9568 843.013 34.9956 842.901 34.9996C842.79 35.0037 842.68 34.9729 842.586 34.9111L835.792 30.5563C835.705 30.5003 835.604 30.4706 835.501 30.4706C835.398 30.4706 835.297 30.5003 835.209 30.5563L828.414 34.9111C828.32 34.9716 828.21 35.0014 828.1 34.9967C827.989 34.992 827.882 34.953 827.793 34.8846C827.703 34.8163 827.635 34.7216 827.597 34.6126C827.558 34.5036 827.552 34.3852 827.577 34.2722L829.425 26.1487C829.449 26.0435 829.444 25.9336 829.412 25.8309C829.38 25.7283 829.322 25.6368 829.244 25.5666L823.196 20.1339C823.112 20.0584 823.051 19.9584 823.021 19.8466C822.991 19.7348 822.993 19.6162 823.027 19.5057C823.062 19.3952 823.126 19.2978 823.213 19.2258C823.3 19.1538 823.405 19.1104 823.516 19.1011L831.452 18.4348C831.555 18.4259 831.654 18.3874 831.737 18.3234C831.821 18.2594 831.886 18.1725 831.925 18.0722L834.981 10.3622Z" fill="#CED0E8"/>
<path d="M1150.98 438.362C1151.02 438.255 1151.1 438.163 1151.19 438.099C1151.28 438.034 1151.39 438 1151.5 438C1151.61 438 1151.72 438.034 1151.81 438.099C1151.9 438.163 1151.97 438.255 1152.02 438.362L1155.07 446.072C1155.11 446.172 1155.18 446.259 1155.26 446.322C1155.34 446.386 1155.44 446.424 1155.55 446.433L1163.48 447.099C1163.59 447.108 1163.7 447.151 1163.79 447.223C1163.87 447.296 1163.94 447.393 1163.97 447.504C1164.01 447.615 1164.01 447.734 1163.98 447.846C1163.95 447.958 1163.89 448.059 1163.8 448.134L1157.76 453.567C1157.68 453.637 1157.62 453.728 1157.59 453.831C1157.56 453.934 1157.55 454.044 1157.58 454.149L1159.43 462.272C1159.45 462.386 1159.45 462.505 1159.41 462.615C1159.37 462.724 1159.3 462.82 1159.21 462.888C1159.12 462.957 1159.01 462.996 1158.9 463C1158.79 463.004 1158.68 462.973 1158.59 462.911L1151.79 458.556C1151.7 458.5 1151.6 458.471 1151.5 458.471C1151.4 458.471 1151.3 458.5 1151.21 458.556L1144.41 462.911C1144.32 462.972 1144.21 463.001 1144.1 462.997C1143.99 462.992 1143.88 462.953 1143.79 462.885C1143.7 462.816 1143.63 462.722 1143.6 462.613C1143.56 462.504 1143.55 462.385 1143.58 462.272L1145.43 454.149C1145.45 454.044 1145.44 453.934 1145.41 453.831C1145.38 453.728 1145.32 453.637 1145.24 453.567L1139.2 448.134C1139.11 448.058 1139.05 447.958 1139.02 447.847C1138.99 447.735 1138.99 447.616 1139.03 447.506C1139.06 447.395 1139.13 447.298 1139.21 447.226C1139.3 447.154 1139.41 447.11 1139.52 447.101L1147.45 446.435C1147.56 446.426 1147.65 446.387 1147.74 446.323C1147.82 446.259 1147.89 446.172 1147.92 446.072L1150.98 438.362Z" fill="#CED0E8"/>
<path d="M212.585 345.29C212.619 345.204 212.677 345.131 212.75 345.079C212.824 345.028 212.911 345 212.999 345C213.088 345 213.174 345.028 213.248 345.079C213.322 345.131 213.379 345.204 213.413 345.29L215.858 351.458C215.89 351.538 215.942 351.607 216.009 351.658C216.076 351.709 216.154 351.739 216.237 351.746L222.586 352.279C222.675 352.286 222.759 352.321 222.829 352.379C222.899 352.436 222.951 352.515 222.978 352.603C223.006 352.692 223.007 352.787 222.983 352.877C222.959 352.967 222.909 353.047 222.841 353.107L218.006 357.453C217.944 357.509 217.897 357.583 217.871 357.665C217.846 357.747 217.842 357.835 217.861 357.919L219.341 364.418C219.362 364.509 219.357 364.604 219.326 364.692C219.296 364.78 219.241 364.856 219.169 364.911C219.096 364.965 219.01 364.996 218.921 365C218.832 365.003 218.744 364.978 218.668 364.929L213.234 361.445C213.164 361.4 213.083 361.376 213.001 361.376C212.918 361.376 212.838 361.4 212.768 361.445L207.331 364.929C207.256 364.977 207.168 365.001 207.08 364.997C206.991 364.994 206.906 364.962 206.834 364.908C206.762 364.853 206.708 364.777 206.677 364.69C206.647 364.603 206.641 364.508 206.662 364.418L208.14 357.919C208.159 357.835 208.156 357.747 208.13 357.665C208.104 357.583 208.058 357.509 207.995 357.453L203.157 353.107C203.09 353.047 203.041 352.967 203.017 352.877C202.993 352.788 202.995 352.693 203.022 352.605C203.049 352.516 203.101 352.438 203.17 352.381C203.24 352.323 203.324 352.288 203.412 352.281L209.762 351.748C209.844 351.741 209.923 351.71 209.99 351.659C210.057 351.608 210.109 351.538 210.14 351.458L212.585 345.29Z" fill="#CED0E8"/>
<path d="M780.585 223.29C780.619 223.204 780.677 223.131 780.75 223.079C780.824 223.028 780.911 223 780.999 223C781.088 223 781.174 223.028 781.248 223.079C781.322 223.131 781.379 223.204 781.413 223.29L783.858 229.458C783.89 229.538 783.942 229.607 784.009 229.658C784.076 229.709 784.154 229.739 784.237 229.746L790.586 230.279C790.675 230.286 790.759 230.321 790.829 230.379C790.899 230.436 790.951 230.515 790.978 230.603C791.006 230.692 791.007 230.787 790.983 230.877C790.959 230.967 790.909 231.047 790.841 231.107L786.006 235.453C785.944 235.509 785.897 235.583 785.871 235.665C785.846 235.747 785.842 235.835 785.861 235.919L787.341 242.418C787.362 242.509 787.357 242.604 787.326 242.692C787.296 242.78 787.241 242.856 787.169 242.911C787.096 242.965 787.01 242.996 786.921 243C786.832 243.003 786.744 242.978 786.668 242.929L781.234 239.445C781.164 239.4 781.083 239.376 781.001 239.376C780.918 239.376 780.838 239.4 780.768 239.445L775.331 242.929C775.256 242.977 775.168 243.001 775.08 242.997C774.991 242.994 774.906 242.962 774.834 242.908C774.762 242.853 774.708 242.777 774.677 242.69C774.647 242.603 774.641 242.508 774.662 242.418L776.14 235.919C776.159 235.835 776.156 235.747 776.13 235.665C776.104 235.583 776.058 235.509 775.995 235.453L771.157 231.107C771.09 231.047 771.041 230.967 771.017 230.877C770.993 230.788 770.995 230.693 771.022 230.605C771.049 230.516 771.101 230.438 771.17 230.381C771.24 230.323 771.324 230.288 771.412 230.281L777.762 229.748C777.844 229.741 777.923 229.71 777.99 229.659C778.057 229.608 778.109 229.538 778.14 229.458L780.585 223.29Z" fill="#CED0E8"/>
<path d="M591 350L588 358L580 361L588 364L591 372L594 364L602 361L594 358L591 350Z" fill="#CED0E8"/>
<path d="M964 293L961 301L953 304L961 307L964 315L967 307L975 304L967 301L964 293Z" fill="#CED0E8"/>
<path d="M1360 1L1357 9L1349 12L1357 15L1360 23L1363 15L1371 12L1363 9L1360 1Z" fill="#CED0E8"/>
<path d="M11 243L8 251L0 254L8 257L11 265L14 257L22 254L14 251L11 243Z" fill="#CED0E8"/>
<path d="M554 73L551 81L543 84L551 87L554 95L557 87L565 84L557 81L554 73Z" fill="#CED0E8"/>
<path d="M355 10L350.909 20.9091L340 25L350.909 29.0909L355 40L359.091 29.0909L370 25L359.091 20.9091L355 10Z" fill="#CED0E8"/>
<path d="M543 456L540.273 468.727L533 473.5L540.273 478.273L543 491L545.727 478.273L553 473.5L545.727 468.727L543 456Z" fill="#CED0E8"/>
<path d="M1079 507L1076.27 519.727L1069 524.5L1076.27 529.273L1079 542L1081.73 529.273L1089 524.5L1081.73 519.727L1079 507Z" fill="#CED0E8"/>
<path d="M1174 139L1171.27 151.727L1164 156.5L1171.27 161.273L1174 174L1176.73 161.273L1184 156.5L1176.73 151.727L1174 139Z" fill="#CED0E8"/>
<circle cx="645" cy="134" r="5" fill="#CED0E8"/>
<circle cx="406" cy="5" r="5" fill="#CED0E8"/>
<circle cx="1012" cy="74" r="5" fill="#CED0E8"/>
<circle cx="878" cy="402" r="5" fill="#CED0E8"/>
<circle cx="63" cy="100" r="5" fill="#CED0E8"/>
<circle cx="182" cy="530" r="5" fill="#CED0E8"/>
<circle cx="1295" cy="468" r="5" fill="#CED0E8"/>
</svg>
